<?xml version="1.0" encoding="UTF-8"?>
<!-- Generated by SVGo -->
<svg width="210.026mm" height="90.963mm" viewBox="0.000 0.000 210.026 90.963" xmlns="http://www.w3.org/2000/svg" xmlns:xlink="http://www.w3.org/1999/xlink">
<polygon points="205.026,85.963 5.000,85.963 5.000,5.000 205.026,5.000" style="fill:none;stroke-width:0.050000mm;stroke:black"/>
<polygon points="81.343,69.437 81.343,70.437 80.543,70.437 80.543,73.537 81.343,73.537 81.343,74.137 79.818,74.137 79.818,70.907 78.093,70.907 78.093,69.987 74.793,69.987 74.793,70.907 73.068,70.907 73.068,74.137 72.243,74.137 72.243,76.937 73.068,76.937 73.068,83.207 74.793,83.207 74.793,84.187 78.093,84.187 78.093,83.207 79.818,83.207 79.818,78.737 81.343,78.737 81.343,79.337 80.543,79.337 80.543,82.437 81.343,82.437 81.343,83.437 95.343,83.437 95.343,82.437 96.143,82.437 96.143,79.337 95.343,79.337 95.343,78.737 96.868,78.737 96.868,83.207 98.593,83.207 98.593,84.187 101.893,84.187 101.893,83.207 103.618,83.207 103.618,76.937 104.443,76.937 104.443,74.137 103.618,74.137 103.618,70.907 101.893,70.907 101.893,69.987 98.593,69.987 98.593,70.907 96.868,70.907 96.868,74.137 95.343,74.137 95.343,73.537 96.143,73.537 96.143,70.437 95.343,70.437 95.343,69.437" style="fill:none;stroke-width:0.050000mm;stroke:black"/>
<polygon points="121.824,69.437 121.824,70.437 121.024,70.437 121.024,73.537 121.824,73.537 121.824,74.137 120.299,74.137 120.299,70.907 118.574,70.907 118.574,69.987 115.274,69.987 115.274,70.907 113.549,70.907 113.549,74.137 112.725,74.137 112.725,76.937 113.549,76.937 113.549,83.207 115.274,83.207 115.274,84.187 118.574,84.187 118.574,83.207 120.299,83.207 120.299,78.737 121.824,78.737 121.824,79.337 121.024,79.337 121.024,82.437 121.824,82.437 121.824,83.437 135.825,83.437 135.825,82.437 136.625,82.437 136.625,79.337 135.825,79.337 135.825,78.737 137.350,78.737 137.350,83.207 139.075,83.207 139.075,84.187 142.375,84.187 142.375,83.207 144.100,83.207 144.100,76.937 144.924,76.937 144.924,74.137 144.100,74.137 144.100,70.907 142.375,70.907 142.375,69.987 139.075,69.987 139.075,70.907 137.350,70.907 137.350,74.137 135.825,74.137 135.825,73.537 136.625,73.537 136.625,70.437 135.825,70.437 135.825,69.437" style="fill:none;stroke-width:0.050000mm;stroke:black"/>
<polygon points="12.287,69.437 12.287,70.437 11.487,70.437 11.487,73.537 12.287,73.537 12.287,79.337 11.487,79.337 11.487,82.437 12.287,82.437 12.287,83.437 26.287,83.437 26.287,82.437 27.087,82.437 27.087,79.337 26.287,79.337 26.287,73.537 27.087,73.537 27.087,70.437 26.287,70.437 26.287,69.437" style="fill:none;stroke-width:0.050000mm;stroke:black"/>
<polygon points="31.337,69.437 31.337,70.437 30.537,70.437 30.537,73.537 31.337,73.537 31.337,79.337 30.537,79.337 30.537,82.437 31.337,82.437 31.337,83.437 45.337,83.437 45.337,82.437 46.137,82.437 46.137,79.337 45.337,79.337 45.337,73.537 46.137,73.537 46.137,70.437 45.337,70.437 45.337,69.437" style="fill:none;stroke-width:0.050000mm;stroke:black"/>
<polygon points="50.387,69.437 50.387,70.437 49.587,70.437 49.587,73.537 50.387,73.537 50.387,79.337 49.587,79.337 49.587,82.437 50.387,82.437 50.387,83.437 64.387,83.437 64.387,82.437 65.187,82.437 65.187,79.337 64.387,79.337 64.387,73.537 65.187,73.537 65.187,70.437 64.387,70.437 64.387,69.437" style="fill:none;stroke-width:0.050000mm;stroke:black"/>
<polygon points="150.399,69.437 150.399,70.437 149.599,70.437 149.599,73.537 150.399,73.537 150.399,79.337 149.599,79.337 149.599,82.437 150.399,82.437 150.399,83.437 164.399,83.437 164.399,82.437 165.200,82.437 165.200,79.337 164.399,79.337 164.399,73.537 165.200,73.537 165.200,70.437 164.399,70.437 164.399,69.437" style="fill:none;stroke-width:0.050000mm;stroke:black"/>
<polygon points="169.450,69.437 169.450,70.437 168.649,70.437 168.649,73.537 169.450,73.537 169.450,79.337 168.649,79.337 168.649,82.437 169.450,82.437 169.450,83.437 183.450,83.437 183.450,82.437 184.250,82.437 184.250,79.337 183.450,79.337 183.450,73.537 184.250,73.537 184.250,70.437 183.450,70.437 183.450,69.437" style="fill:none;stroke-width:0.050000mm;stroke:black"/>
<polygon points="188.500,69.437 188.500,70.437 187.700,70.437 187.700,73.537 188.500,73.537 188.500,79.337 187.700,79.337 187.700,82.437 188.500,82.437 188.500,83.437 202.500,83.437 202.500,82.437 203.300,82.437 203.300,79.337 202.500,79.337 202.500,73.537 203.300,73.537 203.300,70.437 202.500,70.437 202.500,69.437" style="fill:none;stroke-width:0.050000mm;stroke:black"/>
<polygon points="19.431,50.387 19.431,51.387 18.631,51.387 18.631,54.487 19.431,54.487 19.431,60.287 18.631,60.287 18.631,63.387 19.431,63.387 19.431,64.387 33.431,64.387 33.431,63.387 34.231,63.387 34.231,60.287 33.431,60.287 33.431,54.487 34.231,54.487 34.231,51.387 33.431,51.387 33.431,50.387" style="fill:none;stroke-width:0.050000mm;stroke:black"/>
<polygon points="45.625,50.387 45.625,51.387 44.825,51.387 44.825,54.487 45.625,54.487 45.625,60.287 44.825,60.287 44.825,63.387 45.625,63.387 45.625,64.387 59.625,64.387 59.625,63.387 60.425,63.387 60.425,60.287 59.625,60.287 59.625,54.487 60.425,54.487 60.425,51.387 59.625,51.387 59.625,50.387" style="fill:none;stroke-width:0.050000mm;stroke:black"/>
<polygon points="64.675,50.387 64.675,51.387 63.875,51.387 63.875,54.487 64.675,54.487 64.675,60.287 63.875,60.287 63.875,63.387 64.675,63.387 64.675,64.387 78.675,64.387 78.675,63.387 79.475,63.387 79.475,60.287 78.675,60.287 78.675,54.487 79.475,54.487 79.475,51.387 78.675,51.387 78.675,50.387" style="fill:none;stroke-width:0.050000mm;stroke:black"/>
<polygon points="83.725,50.387 83.725,51.387 82.925,51.387 82.925,54.487 83.725,54.487 83.725,60.287 82.925,60.287 82.925,63.387 83.725,63.387 83.725,64.387 97.725,64.387 97.725,63.387 98.524,63.387 98.524,60.287 97.725,60.287 97.725,54.487 98.524,54.487 98.524,51.387 97.725,51.387 97.725,50.387" style="fill:none;stroke-width:0.050000mm;stroke:black"/>
<polygon points="102.774,50.387 102.774,51.387 101.975,51.387 101.975,54.487 102.774,54.487 102.774,60.287 101.975,60.287 101.975,63.387 102.774,63.387 102.774,64.387 116.774,64.387 116.774,63.387 117.574,63.387 117.574,60.287 116.774,60.287 116.774,54.487 117.574,54.487 117.574,51.387 116.774,51.387 116.774,50.387" style="fill:none;stroke-width:0.050000mm;stroke:black"/>
<polygon points="121.824,50.387 121.824,51.387 121.024,51.387 121.024,54.487 121.824,54.487 121.824,60.287 121.024,60.287 121.024,63.387 121.824,63.387 121.824,64.387 135.825,64.387 135.825,63.387 136.625,63.387 136.625,60.287 135.825,60.287 135.825,54.487 136.625,54.487 136.625,51.387 135.825,51.387 135.825,50.387" style="fill:none;stroke-width:0.050000mm;stroke:black"/>
<polygon points="140.875,50.387 140.875,51.387 140.075,51.387 140.075,54.487 140.875,54.487 140.875,60.287 140.075,60.287 140.075,63.387 140.875,63.387 140.875,64.387 154.875,64.387 154.875,63.387 155.675,63.387 155.675,60.287 154.875,60.287 154.875,54.487 155.675,54.487 155.675,51.387 154.875,51.387 154.875,50.387" style="fill:none;stroke-width:0.050000mm;stroke:black"/>
<polygon points="159.925,50.387 159.925,51.387 159.125,51.387 159.125,54.487 159.925,54.487 159.925,60.287 159.125,60.287 159.125,63.387 159.925,63.387 159.925,64.387 173.925,64.387 173.925,63.387 174.725,63.387 174.725,60.287 173.925,60.287 173.925,54.487 174.725,54.487 174.725,51.387 173.925,51.387 173.925,50.387" style="fill:none;stroke-width:0.050000mm;stroke:black"/>
<polygon points="183.737,50.387 183.737,51.387 182.937,51.387 182.937,54.487 183.737,54.487 183.737,60.287 182.937,60.287 182.937,63.387 183.737,63.387 183.737,64.387 197.737,64.387 197.737,63.387 198.537,63.387 198.537,60.287 197.737,60.287 197.737,54.487 198.537,54.487 198.537,51.387 197.737,51.387 197.737,50.387" style="fill:none;stroke-width:0.050000mm;stroke:black"/>
<polygon points="14.668,31.337 14.668,32.337 13.868,32.337 13.868,35.437 14.668,35.437 14.668,41.237 13.868,41.237 13.868,44.337 14.668,44.337 14.668,45.337 28.668,45.337 28.668,44.337 29.468,44.337 29.468,41.237 28.668,41.237 28.668,35.437 29.468,35.437 29.468,32.337 28.668,32.337 28.668,31.337" style="fill:none;stroke-width:0.050000mm;stroke:black"/>
<polygon points="36.099,31.337 36.099,32.337 35.300,32.337 35.300,35.437 36.099,35.437 36.099,41.237 35.300,41.237 35.300,44.337 36.099,44.337 36.099,45.337 50.099,45.337 50.099,44.337 50.899,44.337 50.899,41.237 50.099,41.237 50.099,35.437 50.899,35.437 50.899,32.337 50.099,32.337 50.099,31.337" style="fill:none;stroke-width:0.050000mm;stroke:black"/>
<polygon points="55.149,31.337 55.149,32.337 54.349,32.337 54.349,35.437 55.149,35.437 55.149,41.237 54.349,41.237 54.349,44.337 55.149,44.337 55.149,45.337 69.149,45.337 69.149,44.337 69.949,44.337 69.949,41.237 69.149,41.237 69.149,35.437 69.949,35.437 69.949,32.337 69.149,32.337 69.149,31.337" style="fill:none;stroke-width:0.050000mm;stroke:black"/>
<polygon points="74.199,31.337 74.199,32.337 73.399,32.337 73.399,35.437 74.199,35.437 74.199,41.237 73.399,41.237 73.399,44.337 74.199,44.337 74.199,45.337 88.199,45.337 88.199,44.337 88.999,44.337 88.999,41.237 88.199,41.237 88.199,35.437 88.999,35.437 88.999,32.337 88.199,32.337 88.199,31.337" style="fill:none;stroke-width:0.050000mm;stroke:black"/>
<polygon points="93.249,31.337 93.249,32.337 92.449,32.337 92.449,35.437 93.249,35.437 93.249,41.237 92.449,41.237 92.449,44.337 93.249,44.337 93.249,45.337 107.249,45.337 107.249,44.337 108.049,44.337 108.049,41.237 107.249,41.237 107.249,35.437 108.049,35.437 108.049,32.337 107.249,32.337 107.249,31.337" style="fill:none;stroke-width:0.050000mm;stroke:black"/>
<polygon points="112.299,31.337 112.299,32.337 111.499,32.337 111.499,35.437 112.299,35.437 112.299,41.237 111.499,41.237 111.499,44.337 112.299,44.337 112.299,45.337 126.299,45.337 126.299,44.337 127.099,44.337 127.099,41.237 126.299,41.237 126.299,35.437 127.099,35.437 127.099,32.337 126.299,32.337 126.299,31.337" style="fill:none;stroke-width:0.050000mm;stroke:black"/>
<polygon points="131.350,31.337 131.350,32.337 130.549,32.337 130.549,35.437 131.350,35.437 131.350,41.237 130.549,41.237 130.549,44.337 131.350,44.337 131.350,45.337 145.350,45.337 145.350,44.337 146.150,44.337 146.150,41.237 145.350,41.237 145.350,35.437 146.150,35.437 146.150,32.337 145.350,32.337 145.350,31.337" style="fill:none;stroke-width:0.050000mm;stroke:black"/>
<polygon points="150.400,31.337 150.400,32.337 149.600,32.337 149.600,35.437 150.400,35.437 150.400,41.237 149.600,41.237 149.600,44.337 150.400,44.337 150.400,45.337 164.400,45.337 164.400,44.337 165.200,44.337 165.200,41.237 164.400,41.237 164.400,35.437 165.200,35.437 165.200,32.337 164.400,32.337 164.400,31.337" style="fill:none;stroke-width:0.050000mm;stroke:black"/>
<polygon points="169.450,31.337 169.450,32.337 168.650,32.337 168.650,35.437 169.450,35.437 169.450,41.237 168.650,41.237 168.650,44.337 169.450,44.337 169.450,45.337 183.450,45.337 183.450,44.337 184.250,44.337 184.250,41.237 183.450,41.237 183.450,35.437 184.250,35.437 184.250,32.337 183.450,32.337 183.450,31.337" style="fill:none;stroke-width:0.050000mm;stroke:black"/>
<polygon points="188.500,31.337 188.500,32.337 187.700,32.337 187.700,35.437 188.500,35.437 188.500,41.237 187.700,41.237 187.700,44.337 188.500,44.337 188.500,45.337 202.500,45.337 202.500,44.337 203.300,44.337 203.300,41.237 202.500,41.237 202.500,35.437 203.300,35.437 203.300,32.337 202.500,32.337 202.500,31.337" style="fill:none;stroke-width:0.050000mm;stroke:black"/>
<polygon points="12.287,12.287 12.287,13.287 11.487,13.287 11.487,16.387 12.287,16.387 12.287,22.187 11.487,22.187 11.487,25.287 12.287,25.287 12.287,26.287 26.287,26.287 26.287,25.287 27.087,25.287 27.087,22.187 26.287,22.187 26.287,16.387 27.087,16.387 27.087,13.287 26.287,13.287 26.287,12.287" style="fill:none;stroke-width:0.050000mm;stroke:black"/>
<polygon points="31.337,12.287 31.337,13.287 30.537,13.287 30.537,16.387 31.337,16.387 31.337,22.187 30.537,22.187 30.537,25.287 31.337,25.287 31.337,26.287 45.337,26.287 45.337,25.287 46.137,25.287 46.137,22.187 45.337,22.187 45.337,16.387 46.137,16.387 46.137,13.287 45.337,13.287 45.337,12.287" style="fill:none;stroke-width:0.050000mm;stroke:black"/>
<polygon points="50.387,12.287 50.387,13.287 49.587,13.287 49.587,16.387 50.387,16.387 50.387,22.187 49.587,22.187 49.587,25.287 50.387,25.287 50.387,26.287 64.387,26.287 64.387,25.287 65.187,25.287 65.187,22.187 64.387,22.187 64.387,16.387 65.187,16.387 65.187,13.287 64.387,13.287 64.387,12.287" style="fill:none;stroke-width:0.050000mm;stroke:black"/>
<polygon points="69.437,12.287 69.437,13.287 68.637,13.287 68.637,16.387 69.437,16.387 69.437,22.187 68.637,22.187 68.637,25.287 69.437,25.287 69.437,26.287 83.437,26.287 83.437,25.287 84.237,25.287 84.237,22.187 83.437,22.187 83.437,16.387 84.237,16.387 84.237,13.287 83.437,13.287 83.437,12.287" style="fill:none;stroke-width:0.050000mm;stroke:black"/>
<polygon points="88.487,12.287 88.487,13.287 87.687,13.287 87.687,16.387 88.487,16.387 88.487,22.187 87.687,22.187 87.687,25.287 88.487,25.287 88.487,26.287 102.487,26.287 102.487,25.287 103.287,25.287 103.287,22.187 102.487,22.187 102.487,16.387 103.287,16.387 103.287,13.287 102.487,13.287 102.487,12.287" style="fill:none;stroke-width:0.050000mm;stroke:black"/>
<polygon points="107.537,12.287 107.537,13.287 106.737,13.287 106.737,16.387 107.537,16.387 107.537,22.187 106.737,22.187 106.737,25.287 107.537,25.287 107.537,26.287 121.537,26.287 121.537,25.287 122.337,25.287 122.337,22.187 121.537,22.187 121.537,16.387 122.337,16.387 122.337,13.287 121.537,13.287 121.537,12.287" style="fill:none;stroke-width:0.050000mm;stroke:black"/>
<polygon points="126.587,12.287 126.587,13.287 125.787,13.287 125.787,16.387 126.587,16.387 126.587,22.187 125.787,22.187 125.787,25.287 126.587,25.287 126.587,26.287 140.587,26.287 140.587,25.287 141.387,25.287 141.387,22.187 140.587,22.187 140.587,16.387 141.387,16.387 141.387,13.287 140.587,13.287 140.587,12.287" style="fill:none;stroke-width:0.050000mm;stroke:black"/>
<polygon points="145.637,12.287 145.637,13.287 144.837,13.287 144.837,16.387 145.637,16.387 145.637,22.187 144.837,22.187 144.837,25.287 145.637,25.287 145.637,26.287 159.637,26.287 159.637,25.287 160.437,25.287 160.437,22.187 159.637,22.187 159.637,16.387 160.437,16.387 160.437,13.287 159.637,13.287 159.637,12.287" style="fill:none;stroke-width:0.050000mm;stroke:black"/>
<polygon points="164.687,12.287 164.687,13.287 163.887,13.287 163.887,16.387 164.687,16.387 164.687,22.187 163.887,22.187 163.887,25.287 164.687,25.287 164.687,26.287 178.687,26.287 178.687,25.287 179.487,25.287 179.487,22.187 178.687,22.187 178.687,16.387 179.487,16.387 179.487,13.287 178.687,13.287 178.687,12.287" style="fill:none;stroke-width:0.050000mm;stroke:black"/>
<polygon points="186.118,12.287 186.118,13.287 185.318,13.287 185.318,16.387 186.118,16.387 186.118,22.187 185.318,22.187 185.318,25.287 186.118,25.287 186.118,26.287 200.118,26.287 200.118,25.287 200.918,25.287 200.918,22.187 200.118,22.187 200.118,16.387 200.918,16.387 200.918,13.287 200.118,13.287 200.118,12.287" style="fill:none;stroke-width:0.050000mm;stroke:black"/>
</svg>
